<svg xmlns="http://www.w3.org/2000/svg" width="28" height="28" viewBox="0 0 28 28">
  <path fill="#8E8E93" fill-rule="evenodd" d="M12.6875,12.6875 L6.5625,12.6875 C5.83762627,12.6875 5.25,13.2751263 5.25,14 C5.25,14.7248737 5.83762627,15.3125 6.5625,15.3125 L12.6875,15.3125 L12.6875,21.4375 C12.6875,22.1623737 13.2751263,22.75 14,22.75 C14.7248737,22.75 15.3125,22.1623737 15.3125,21.4375 L15.3125,15.3125 L21.4375,15.3125 C22.1623737,15.3125 22.75,14.7248737 22.75,14 C22.75,13.2751263 22.1623737,12.6875 21.4375,12.6875 L15.3125,12.6875 L15.3125,6.5625 C15.3125,5.83762627 14.7248737,5.25 14,5.25 C13.2751263,5.25 12.6875,5.83762627 12.6875,6.5625 L12.6875,12.6875 Z M14,28 C6.2680135,28 0,21.7319865 0,14 C0,6.2680135 6.2680135,0 14,0 C21.7319865,0 28,6.2680135 28,14 C28,21.7319865 21.7319865,28 14,28 Z" transform="rotate(45 13.995 14.011)"/>
</svg>
