<svg xmlns="http://www.w3.org/2000/svg" width="24" height="24" viewBox="0 0 24 24">
  <path fill="#808080" fill-rule="evenodd" d="M10.4516,18.6861527 C10.1890137,18.6425962 9.9197664,18.7102321 9.712016,18.8719389 C8.64917878,19.6290265 7.40129716,20.1045905 6.09128,20.2517905 C5.93926188,20.2672747 5.79179547,20.1957965 5.71332866,20.0685944 C5.63486185,19.9413923 5.63966072,19.781593 5.725628,19.6590342 C6.23189971,19.0475935 6.59539444,18.3369529 6.791048,17.5761135 C6.83055343,17.3683641 6.7468189,17.1566504 6.574184,17.0277964 C4.66352612,15.6513501 3.52623225,13.4879588 3.5,11.18 C3.5,6.943712 7.368272,3.5 12.14,3.5 C16.911728,3.5 20.78,6.943712 20.78,11.18 C20.78,15.416288 16.911692,18.86 12.14,18.86 C11.5728771,18.8526396 11.007671,18.7944427 10.4516,18.6861527 Z"/>
</svg>
