<svg width="60px" height="60px" viewBox="0 0 60 60" version="1.1" xmlns="http://www.w3.org/2000/svg">  <g stroke="none" stroke-width="1" fill="none" fill-rule="evenodd">    <ellipse fill="#282828" opacity="0.45" cx="30" cy="30" rx="30" ry="30"></ellipse>    <path d="M41.5524997,18.9301998 C38.6402497,15.8917684 34.5410479,14 30,14 C21.163444,14 14,21.163444 14,30 C14,38.836556 21.163444,46 30,46 L30,46 C37.8110873,46 44.3148545,40.4026975 45.719165,33.000229" stroke="#FFFFFF" stroke-width="2" stroke-linecap="round"></path>    <path d="M45.1078654,16.2360097 C45.5479003,15.9059835 45.9046191,16.0847558 45.9046191,16.6359891 L45.9046191,23.6408998 C45.9046191,24.1918285 45.5472602,24.3704252 45.1078654,24.0408792 L40.7013728,20.7360097 C40.2613379,20.4059835 40.261978,19.8704252 40.7013728,19.5408792 L45.1078654,16.2360097 Z" fill="#FFFFFF"></path>  </g></svg>