<svg xmlns="http://www.w3.org/2000/svg" width="11" height="14" viewBox="0 0 11 14">
  <defs>
    <linearGradient id="ic_search_trending-a" x1="63.313%" x2="46.604%" y1="-13.472%" y2="117.368%">
      <stop offset="2.35%" stop-color="#EC471E"/>
      <stop offset="100%" stop-color="#FF6DC4"/>
    </linearGradient>
  </defs>
  <path fill="url(#ic_search_trending-a)" fill-rule="evenodd" d="M13.505705,18.8286015 C14.1832628,18.322302 14.5980279,17.4354352 14.75,16.168001 C14.9841835,14.2149311 14.2341835,12.353826 12.5,10.5846857 C12.6642765,12.3666016 12.6642765,13.4849619 12.5,13.9397665 C12.1788143,14.828979 11.6178746,15.4823046 11,15.5182451 C9.93856803,15.5799865 9.18856803,15.120097 8.75,14.1385766 C8.2185245,15.1116944 8.13519117,16.1268754 8.5,17.1841195 C8.74308584,17.888601 9.23813268,18.4935018 9.98514051,18.998822 C7.68424023,18.3239288 6,16.1501586 6,13.5728024 C6,11.9048492 6.70537956,10.4059225 7.82678516,9.37288659 C7.87582889,10.9839379 8.3630079,12.1709195 9.5,13.1231792 C8.97449216,12.2582308 8.92364758,11.4821135 8.92364758,10.3878323 C8.92364758,7.85721339 10.5473582,5.71567616 12.7842304,5 C12.8493406,6.50240797 13.4870921,7.85204275 14.4789847,8.82473268 C15.9958368,9.83322784 17,11.5827038 17,13.5728024 C17,15.9630937 15.5513722,18.0062576 13.505705,18.8286015 Z" transform="translate(-6 -5)"/>
</svg>
