<svg xmlns="http://www.w3.org/2000/svg" width="150" height="94" viewBox="0 0 150 94">
  <g fill="none" fill-rule="evenodd">
    <rect width="150" height="94"/>
    <g fill="#EBEBEB" transform="translate(32 12.5)">
      <path fill-rule="nonzero" d="M77.2976721,58.0550314 C77.3654693,58.1228286 77.420749,58.1703947 77.4595878,58.1985564 C77.4528208,58.1957603 77.4253475,58.1820477 77.3778007,58.1636473 C77.0682663,58.0438593 76.6326727,58.0257911 76.1769314,58.1996306 C75.7236681,58.3725248 75.413749,58.6725524 75.2639489,58.9632193 C75.2426841,59.0044808 75.2319196,59.0305452 75.2280073,59.0410194 C75.2381256,58.9965473 75.2491642,58.9197136 75.2556049,58.8166624 L75.4205284,56.1778877 L77.2976721,58.0550314 Z M75.2280073,59.0410194 C75.2269629,59.0438156 75.2264068,59.0455008 75.2262697,59.0460673 C75.2263372,59.0457885 75.2269164,59.0441059 75.2280073,59.0410194 Z M77.4595878,58.1985564 C77.4622219,58.2004664 77.4647804,58.2022871 77.4672621,58.2040188 C77.4665585,58.2035279 77.4651834,58.202689 77.4631132,58.2015288 L77.4595878,58.1985564 Z M75.8066463,50 L83.997285,50 C85.6544399,50 87,48.6548314 87,46.997561 L87,6.00243901 C87,4.34164772 85.6575893,3 83.997285,3 L30.002715,3 C28.3455601,3 27,4.34516857 27,6.00243901 L27,8 L24,8 L24,6.00243901 C24,2.68738348 26.6896369,0 30.002715,0 L83.997285,0 C87.312493,0 90,2.68284357 90,6.00243901 L90,46.997561 C90,50.3126165 87.3103631,53 83.997285,53 L78.625,53 L78.2497627,59.0037973 C78.1118019,61.2111696 76.7358096,61.7358096 75.1763518,60.1763518 L68,53 L63,53 L63,50 L69.2426407,50 L75.4205284,56.1778877 L75.8066463,50 Z M77.2976721,58.0550314 C77.3691421,58.1265014 77.4267016,58.1754889 77.4657544,58.2029625 C77.450093,58.1944115 77.4230284,58.1811502 77.3778007,58.1636473 C77.0682663,58.0438593 76.6326727,58.0257911 76.1769314,58.1996306 C75.7236681,58.3725248 75.413749,58.6725524 75.2639489,58.9632193 C75.2415408,59.0066994 75.2307924,59.0333041 75.2274351,59.0425736 C75.2390704,58.989862 75.2494424,58.9152632 75.2556049,58.8166624 L75.4205284,56.1778877 L77.2976721,58.0550314 Z M77.4657544,58.2029625 C77.4662601,58.2033182 77.4667626,58.2036703 77.4672621,58.2040188 C77.4663878,58.2034088 77.4644769,58.2022617 77.4614842,58.2006284 L77.4657544,58.2029625 Z M75.2280668,59.0383941 C75.2274694,59.0410288 75.2268702,59.0435866 75.2262697,59.0460673 C75.2263792,59.0456149 75.2267559,59.044449 75.2274351,59.0425736 L75.2280668,59.0383941 Z M75.8066463,50 L83.997285,50 C85.6544399,50 87,48.6548314 87,46.997561 L87,6.00243901 C87,4.34164772 85.6575893,3 83.997285,3 L30.002715,3 C28.3455601,3 27,4.34516857 27,6.00243901 L27,8 L24,8 L24,6.00243901 C24,2.68738348 26.6896369,0 30.002715,0 L83.997285,0 C87.312493,0 90,2.68284357 90,6.00243901 L90,46.997561 C90,50.3126165 87.3103631,53 83.997285,53 L78.625,53 L78.2497627,59.0037973 C78.1118019,61.2111696 76.7358096,61.7358096 75.1763518,60.1763518 L68,53 L63,53 L63,50 L69.2426407,50 L75.4205284,56.1778877 L75.8066463,50 Z"/>
      <path d="M63 21L72.5 21C73.3284271 21 74 21.6715729 74 22.5L74 22.5C74 23.3284271 73.3284271 24 72.5 24L63 24 63 21zM63 30L72.5 30C73.3284271 30 74 30.6715729 74 31.5L74 31.5C74 32.3284271 73.3284271 33 72.5 33L63 33 63 30z"/>
      <path fill-rule="nonzero" d="M15.1464023,61.610957 L20.7573593,56 L54,56 C55.6568542,56 57,54.6568542 57,53 L57,17 C57,15.3431458 55.6568542,14 54,14 L6,14 C4.34314575,14 3,15.3431458 3,17 L3,53 C3,54.6568542 4.34314575,56 6,56 L13.1308537,56 L13.4412429,60.9662285 C13.4564416,61.2094062 13.5599006,61.4386689 13.7321887,61.610957 C14.122713,62.0014813 14.755878,62.0014813 15.1464023,61.610957 Z M22,59 L17.2677226,63.7322774 C15.7056255,65.2943745 13.1729656,65.2943745 11.6108684,63.7322774 C10.921716,63.0431249 10.5078796,62.1260741 10.4470852,61.1533634 L10.3125,59 L6,59 C2.6862915,59 4.05812251e-16,56.3137085 0,53 L0,17 C-4.05812251e-16,13.6862915 2.6862915,11 6,11 L54,11 C57.3137085,11 60,13.6862915 60,17 L60,53 C60,56.3137085 57.3137085,59 54,59 L22,59 Z"/>
      <rect width="34" height="3" x="13" y="35" rx="1.5"/>
      <rect width="8" height="8" x="13" y="21" rx="1"/>
      <rect width="34" height="3" x="13" y="44" rx="1.5"/>
    </g>
  </g>
</svg>
