<svg xmlns="http://www.w3.org/2000/svg" width="126" height="96" viewBox="0 0 126 96">
  <g fill="none" fill-rule="evenodd" stroke="#BFBFBF" transform="translate(1)">
    <g transform="translate(86.241)">
      <ellipse cx="15.064" cy="14.26" stroke-width="1.418" rx="8.995" ry="8.924"/>
      <path stroke-linecap="round" stroke-width=".88" d="M24.0344828 6.10040036L25.6061356 4.96268657M22.2180691 21.3936176L23.8135431 23.1528904M6.51616881 21.9776119L4.24137931 23.3497687M6.32963275 5.09459876L4.94827586 3.54477612M15.283591 0L15.283591 2.19718939M27.5689655 14.6144279L29.9206948 14.6144279M15.6163058 23.9121813L15.6163058 25.9254566M2.64634575 14.6144279L-1.13686838e-13 14.6144279"/>
    </g>
    <path fill="#FFF" stroke-width="2.127" d="M85.4832857,71.9516166 L85.5814946,71.9517234 C85.6832771,71.9565392 85.7854392,71.9589552 85.887931,71.9589552 C89.3998992,71.9589552 92.246912,69.1119425 92.246912,65.5999743 L92.246912,40.7433093 C92.246912,37.2313411 89.3998992,34.3843284 85.887931,34.3843284 C82.3759628,34.3843284 79.5289501,37.2313411 79.5289501,40.7433093 L79.5289501,57.7798507 L67.5322954,57.7798507 C63.6168438,57.7798507 60.4427432,60.9539514 60.4427432,64.869403 C60.4427432,68.7848546 63.6168438,71.9589552 67.5322954,71.9589552 L85.1573598,71.9589552 C85.2663478,71.9589552 85.375006,71.9565038 85.4832857,71.9516166 Z"/>
    <path fill="#FFF" stroke-width="2.127" d="M56.340983,86.8451066 L56.3903974,86.8451202 C56.4440838,86.8463827 56.4978615,86.8470149 56.5517241,86.8470149 C60.2588964,86.8470149 63.2641534,83.841758 63.2641534,80.1345857 L63.2641534,63.0743695 C63.2641534,59.3671972 60.2588964,56.3619403 56.5517241,56.3619403 C52.8445518,56.3619403 49.8392949,59.3671972 49.8392949,63.0743695 L49.8392949,72.6679104 L37.1357437,72.6679104 C33.2202921,72.6679104 30.0461915,75.8420111 30.0461915,79.7574627 C30.0461915,83.6729143 33.2202921,86.8470149 37.1357437,86.8470149 L56.1746011,86.8470149 C56.2301488,86.8470149 56.2856115,86.8463781 56.340983,86.8451066 Z" transform="matrix(-1 0 0 1 93.31 0)"/>
    <path stroke-linecap="round" stroke-width="1.418" d="M31.8103448,94.2910448 L101.086207,94.2910448"/>
    <path fill="#FFF" stroke-width="2.127" d="M49.8392949,93.9365672 L73.8676016,93.9365672 L73.8676016,41.4357952 C73.8676016,34.8005615 68.488682,29.4216418 61.8534483,29.4216418 C55.2182146,29.4216418 49.8392949,34.8005615 49.8392949,41.4357952 L49.8392949,93.9365672 Z"/>
    <path stroke-linecap="round" stroke-width="1.418" d="M59.3793103 53.1716418L59.3793103 66.2834064M67.1551724 77.9850746L67.1551724 88.9699736M86.9482759 41.119403L86.9482759 48.9179104M83.4137931 51.7537313L83.4137931 59.5522388M33.9310345 60.9701493L33.9310345 68.7686567M88.362069 53.880597L88.362069 68.0597015M38.8793103 68.0597015L38.8793103 82.238806M55.137931 69.4776119L55.137931 84.7162422M66.4482759 37.5427758L66.4482759 69.1192273"/>
    <path fill="#FFF" stroke-linecap="round" stroke-linejoin="round" stroke-width="1.418" d="M95.4310345,26.9426064 C96.8816103,19.948963 99.1667232,16.6503704 102.286373,17.0468287 C106.965848,17.6415161 108.466675,20.7891036 109.726297,22.3502981 C110.98592,23.9114925 110.54092,17.4589661 115.273996,18.6080231 C118.42938,19.3740612 120.948625,22.1522556 122.83173,26.9426064 L95.4310345,26.9426064 Z"/>
    <path fill="#FFF" stroke-linecap="round" stroke-linejoin="round" stroke-width="2.127" d="M1.13686838e-13,24.2526438 C1.48376263,16.733441 4.04982555,12.9050901 7.69818875,12.767591 C11.0304822,12.6420039 13.8441605,14.3655892 16.1392236,17.9383468 L16.1391768,17.9383768 C16.3508129,18.2678337 16.7894553,18.3633463 17.1189122,18.1517103 C17.2160272,18.0893257 17.2964428,18.0041742 17.3531743,17.9036521 C19.6282118,13.8725261 22.5924381,12.300436 26.2458532,13.1873819 C30.2152785,14.1510461 32.9565479,17.8394668 34.4696614,24.2526438 L1.13686838e-13,24.2526438 Z"/>
  </g>
</svg>
