<svg xmlns="http://www.w3.org/2000/svg" width="10" height="10" viewBox="0 0 10 10">
  <path fill="none" stroke="#BFBFBF" d="M66.8773535,292.510423 L60.8701729,292.510423 L67.9252985,299.56465 C68.0248915,299.66423 68.0249018,299.825692 67.9253215,299.925285 C67.9253138,299.925292 67.9253062,299.9253 67.9252985,299.925308 L67.9252985,299.925308 C67.8256912,300.024902 67.6642075,300.024897 67.5646072,299.925295 L60.5094689,292.870062 L60.5094689,298.876922 C60.5094689,299.017608 60.3954204,299.131656 60.2547345,299.131656 L60.2547345,299.131656 C60.1140485,299.131656 60,299.017608 60,298.876922 L60,292 L66.8773535,292 C67.0183028,292 67.1325649,292.114262 67.1325649,292.255211 L67.1325649,292.255211 C67.1325649,292.396161 67.0183028,292.510423 66.8773535,292.510423 Z" transform="translate(-59 -291)"/>
</svg>
