<svg viewBox="0 0 64 64" xmlns="http://www.w3.org/2000/svg" width="80" height="80" >
  <path fill-opacity="0.9" fill="#fff" d="M32,64 C14.326888,64 0,49.673112 0,32 C0,14.326888 14.326888,0 32,0 C49.673112,0 64,14.326888 64,32 C64,49.673112 49.673112,64 32,64 Z M32.2363929,61.6 C48.5840215,61.6 61.8363929,48.3476286 61.8363929,32 C61.8363929,15.6523714 48.5840215,2.4 32.2363929,2.4 C15.8887643,2.4 2.63639293,15.6523714 2.63639293,32 C2.63639293,48.3476286 15.8887643,61.6 32.2363929,61.6 Z" />
  <circle fill-opacity="0.3" fill="#000" cx="32" cy="32" r="29.6" />
  <path fill-opacity="0.9" fill="#fff" d="M43.5634409,30.7271505 C44.6882014,31.4301259 44.6868607,32.5707121 43.5634409,33.2728495 L28.4365591,42.7271505 C27.3117986,43.4301259 26.4,42.9221451 26.4,41.5999847 L26.4,22.4000153 C26.4,21.0745235 27.3131393,20.5707121 28.4365591,21.2728495 L43.5634409,30.7271505 Z" />
</svg>
