<svg xmlns="http://www.w3.org/2000/svg" width="14" height="14" viewBox="0 0 14 14">
  <g fill="none" fill-rule="evenodd" transform="translate(-3 -2)">
    <rect width="19" height="19" fill="#FFEBEB" opacity="0"/>
    <path fill="#999" fill-rule="nonzero" stroke="#979797" stroke-width=".75" d="M16.3226134,14.4930325 L14.0021303,12.2425907 C14.7412571,11.2758277 15.1848228,10.0763597 15.1848228,8.77142522 C15.1848228,5.58396358 12.5696752,3 9.34248613,3 C6.11559587,3 3.5,5.58396358 3.5,8.77142522 C3.5,11.9594773 6.11552116,14.5431457 9.34248613,14.5431457 C10.8292569,14.5431457 12.1824424,13.9898346 13.2134694,13.0863957 L15.5372398,15.3398635 C15.7654853,15.5613503 16.12627,15.5519771 16.3433834,15.3186078 C16.5599737,15.0851647 16.5508588,14.7152574 16.3226134,14.4930325 Z M9.34285969,13.5250149 C6.68549976,13.5250149 4.53154995,11.3968668 4.53154995,8.77179424 C4.53154995,6.14701686 6.68557447,4.01879505 9.34285969,4.01879505 C11.9999955,4.01879505 14.1541694,6.14694305 14.1541694,8.77179424 C14.1541694,11.3968668 11.9999955,13.5250149 9.34285969,13.5250149 Z"/>
  </g>
</svg>
