<svg xmlns="http://www.w3.org/2000/svg" width="13" height="13" viewBox="0 0 13 13">
  <path fill="#B3B3B3" d="M6.5,11.5322581 C9.27923939,11.5322581 11.5322581,9.27923939 11.5322581,6.5 C11.5322581,3.72076061 9.27923939,1.46774194 6.5,1.46774194 C3.72076061,1.46774194 1.46774194,3.72076061 1.46774194,6.5 C1.46774194,9.27923939 3.72076061,11.5322581 6.5,11.5322581 Z M6.72037649,6.38522721 L9.86553778,6.38522721 C10.2129427,6.38522721 10.49457,6.66685455 10.49457,7.01425947 C10.49457,7.36166439 10.2129427,7.64329173 9.86553778,7.64329173 L6.09134424,7.64329173 C5.91764177,7.64329173 5.76038371,7.57288489 5.64655126,7.45905244 C5.53271881,7.34522 5.46231198,7.18796193 5.46231198,7.01425947 L5.46231198,3.24006592 C5.46231198,2.892661 5.74393931,2.61103366 6.09134424,2.61103366 C6.43874916,2.61103366 6.72037649,2.892661 6.72037649,3.24006592 L6.72037649,6.38522721 Z M6.5,13 C2.91014913,13 0,10.0898509 0,6.5 C0,2.91014913 2.91014913,0 6.5,0 C10.0898509,0 13,2.91014913 13,6.5 C13,10.0898509 10.0898509,13 6.5,13 Z"/>
</svg>
