<svg xmlns="http://www.w3.org/2000/svg" width="40" height="40" viewBox="0 0 40 40">
  <g fill="none" fill-rule="evenodd" transform="translate(-6 -5)">
    <rect width="40.815" height="40.815" fill="#FFEBEB" opacity="0"/>
    <path fill="#999" fill-rule="nonzero" stroke="#979797" stroke-width="1.611" d="M39.5448732,36.6887365 L34.5601318,31.8544541 C36.1478856,29.777704 37.1007305,27.2010689 37.1007305,24.3978764 C37.1007305,17.5507366 31.4830061,12 24.5505258,12 C17.6186874,12 12,17.5507366 12,24.3978764 C12,31.2462845 17.6185269,36.796387 24.5505258,36.796387 C27.7443296,36.796387 30.6511726,35.6077927 32.8659713,33.6670722 L37.8577744,38.5078548 C38.3480795,38.9836413 39.1230985,38.9635064 39.5894902,38.4621946 C40.0547584,37.9607242 40.0351783,37.1661084 39.5448732,36.6887365 Z M24.5513282,34.6092912 C18.8429254,34.6092912 14.2159221,30.037714 14.2159221,24.3986691 C14.2159221,18.7602584 18.8430859,14.1885227 24.5513282,14.1885227 C30.2592496,14.1885227 34.8867343,18.7600999 34.8867343,24.3986691 C34.8867343,30.037714 30.2592496,34.6092912 24.5513282,34.6092912 Z"/>
  </g>
</svg>
