<svg xmlns="http://www.w3.org/2000/svg" width="24" height="24" viewBox="0 0 24 24">
  <path fill="#808080" fill-rule="evenodd" d="M12.5,6.13245404 L12.5,13.7483747 C12.5,14.1634859 12.1671014,14.5 11.75,14.5 C11.3357864,14.5 11,14.1672821 11,13.7483747 L11,6.13121932 L9.95090107,7.23543537 C9.61791852,7.58591202 9.08150518,7.58955174 8.74762517,7.23813048 C8.41605679,6.8891423 8.41801392,6.32126072 8.75018576,5.97163737 L11.4484922,3.13156844 C11.5312519,3.04446078 11.6392101,3.00030157 11.747729,3 L11.7509408,3.0018351 C11.8600332,3.00207283 11.9686167,3.04555716 12.0503347,3.13156844 L14.7486412,5.97163737 C15.0816237,6.32211402 15.0850818,6.88670922 14.7512017,7.23813048 C14.4196334,7.58711866 13.8800977,7.58505871 13.5479258,7.23543537 L12.5,6.13245404 Z M16.7741574,9.00001441 C17.7279764,9.00384643 18.5,9.77126922 18.5,10.7129309 L18.5,19.2870691 C18.5,20.2330947 17.7257223,21 16.7669809,21 L7.23301908,21 C6.27589907,21 5.5,20.2310913 5.5,19.2870691 L5.5,10.7129309 C5.5,9.7692602 6.27042774,9.00381915 7.22586287,9.00001425 L7.22933712,9 L8.53423765,9 C9.01238499,9 9.4,9.38045556 9.4,9.85714286 C9.4,10.3305298 9.01075373,10.7142857 8.53423765,10.7142857 L7.23333333,10.7142857 L7.23333333,19.2857143 L16.7666667,19.2857143 L16.7666667,10.7142857 L15.4657624,10.7142857 C14.9892463,10.7142857 14.6,10.3305298 14.6,9.85714286 C14.6,9.38045556 14.987615,9 15.4657624,9 L16.7706629,9 L16.7741574,9.00001441 Z"/>
</svg>
