<svg xmlns="http://www.w3.org/2000/svg" viewBox="0 0 35 35" fill="#999999" width="15" height="15">
  <g fill-rule="evenodd">
    <path d="M17.5,9 L17.5,9 C16.675,9 16,8.325 16,7.5 L16,1.5 C16,0.675 16.675,0 17.5,0 L17.5,0 C18.325,0 19,0.675 19,1.5 L19,7.5 C19,8.325 18.325,9 17.5,9" opacity=".65"/>
    <path d="M21.75,10.1388 L21.75,10.1388 C21.0355,9.7263 20.7885,8.8043 21.201,8.0898 L24.201,2.8938 C24.6135,2.1793 25.5355,1.9323 26.25,2.3448 L26.25,2.3448 C26.9645,2.7573 27.2115,3.6793 26.799,4.3938 L23.799,9.5898 C23.3865,10.3043 22.4645,10.5513 21.75,10.1388" opacity=".75"/>
    <path d="M24.8612,13.25 L24.8612,13.25 C24.4487,12.5355 24.6957,11.6135 25.4102,11.201 L30.6062,8.201 C31.3207,7.7885 32.2427,8.0355 32.6552,8.75 L32.6552,8.75 C33.0677,9.4645 32.8207,10.3865 32.1062,10.799 L26.9102,13.799 C26.1957,14.2115 25.2737,13.9645 24.8612,13.25" opacity=".85"/>
    <path d="M26,17.5 L26,17.5 C26,16.675 26.675,16 27.5,16 L33.5,16 C34.325,16 35,16.675 35,17.5 L35,17.5 C35,18.325 34.325,19 33.5,19 L27.5,19 C26.675,19 26,18.325 26,17.5" opacity=".9"/>
    <path d="M24.8612,21.75 L24.8612,21.75 C25.2737,21.0355 26.1957,20.7885 26.9102,21.201 L32.1062,24.201 C32.8207,24.6135 33.0677,25.5355 32.6552,26.25 L32.6552,26.25 C32.2427,26.9645 31.3207,27.2115 30.6062,26.799 L25.4102,23.799 C24.6957,23.3865 24.4487,22.4645 24.8612,21.75" opacity=".2"/>
    <path d="M21.75,24.8612 L21.75,24.8612 C22.4645,24.4487 23.3865,24.6957 23.799,25.4102 L26.799,30.6062 C27.2115,31.3207 26.9645,32.2427 26.25,32.6552 L26.25,32.6552 C25.5355,33.0677 24.6135,32.8207 24.201,32.1062 L21.201,26.9102 C20.7885,26.1957 21.0355,25.2737 21.75,24.8612" opacity=".25"/>
    <path d="M17.5,26 L17.5,26 C18.325,26 19,26.675 19,27.5 L19,33.5 C19,34.325 18.325,35 17.5,35 L17.5,35 C16.675,35 16,34.325 16,33.5 L16,27.5 C16,26.675 16.675,26 17.5,26" opacity=".3"/>
    <path d="M13.25,24.8612 L13.25,24.8612 C13.9645,25.2737 14.2115,26.1957 13.799,26.9102 L10.799,32.1062 C10.3865,32.8207 9.4645,33.0677 8.75,32.6552 L8.75,32.6552 C8.0355,32.2427 7.7885,31.3207 8.201,30.6062 L11.201,25.4102 C11.6135,24.6957 12.5355,24.4487 13.25,24.8612" opacity=".35"/>
    <path d="M10.1388,21.75 L10.1388,21.75 C10.5513,22.4645 10.3043,23.3865 9.5898,23.799 L4.3938,26.799 C3.6793,27.2115 2.7573,26.9645 2.3448,26.25 L2.3448,26.25 C1.9323,25.5355 2.1793,24.6135 2.8938,24.201 L8.0898,21.201 C8.8043,20.7885 9.7263,21.0355 10.1388,21.75" opacity=".4"/>
    <path d="M9,17.5 L9,17.5 C9,18.325 8.325,19 7.5,19 L1.5,19 C0.675,19 0,18.325 0,17.5 L0,17.5 C0,16.675 0.675,16 1.5,16 L7.5,16 C8.325,16 9,16.675 9,17.5" opacity=".45"/>
    <path d="M10.1388,13.25 L10.1388,13.25 C9.7263,13.9645 8.8043,14.2115 8.0898,13.799 L2.8938,10.799 C2.1793,10.3865 1.9323,9.4645 2.3448,8.75 L2.3448,8.75 C2.7573,8.0355 3.6793,7.7885 4.3938,8.201 L9.5898,11.201 C10.3043,11.6135 10.5513,12.5355 10.1388,13.25" opacity=".5"/>
    <path d="M13.25,10.1388 L13.25,10.1388 C12.5355,10.5513 11.6135,10.3043 11.201,9.5898 L8.201,4.3938 C7.7885,3.6793 8.0355,2.7573 8.75,2.3448 L8.75,2.3448 C9.4645,1.9323 10.3865,2.1793 10.799,2.8938 L13.799,8.0898 C14.2115,8.8043 13.9645,9.7263 13.25,10.1388" opacity=".55"/>
  </g>
</svg>
