<svg xmlns="http://www.w3.org/2000/svg" width="24" height="24" viewBox="0 0 24 24">
  <path fill="#999" fill-rule="evenodd" d="M13.0037792,7 L13.0037792,4.23203165 C13.0037792,3.82705744 13.3537654,3.49876097 13.7854953,3.49876097 C13.9684218,3.49876097 14.1455555,3.55893689 14.2860597,3.66881289 L20.7226081,8.70227152 C21.054216,8.9615929 21.098927,9.42397604 20.8224729,9.73503317 C20.6739511,9.90214512 20.4539857,9.99876097 20.2220437,9.99876097 L2.75,9.99876097 C2.33578644,9.99876097 2,9.66297453 2,9.24876097 L2,7.75 C2,7.33578644 2.33578644,7 2.75,7 L13.0037792,7 Z M11.0071642,16.998761 L11.0071642,19.7667293 C11.0071642,20.1717035 10.657178,20.5 10.2254481,20.5 C10.0425217,20.5 9.86538795,20.4398241 9.72488373,20.3299481 L3.28833532,15.2964894 C2.95672742,15.0371681 2.91201643,14.5747849 3.18847052,14.2637278 C3.33699237,14.0966159 3.55695773,14 3.78889973,14 L21.25,14 C21.6642136,14 22,14.3357864 22,14.75 L22,16.248761 C22,16.6629745 21.6642136,16.998761 21.25,16.998761 L11.0071642,16.998761 Z"/>
</svg>
