<svg xmlns="http://www.w3.org/2000/svg" xmlns:xlink="http://www.w3.org/1999/xlink" width="18" height="15" viewBox="0 0 18 15">
  <defs>
    <path id="ic_comment_normal-a" d="M5.5,12.9995642 L5.5,13.4997956 L3,13.4997956 C2.44771525,13.4997956 2,13.0520804 2,12.4997956 L2,6.5 C2,5.94771525 2.44771525,5.5 3,5.5 L5.5,5.5 L5.5,5.69775391 C5.5,5.58853744 5.55822017,5.43391123 5.62836078,5.35371353 C5.62836078,5.35371353 5.78457831,5.17877021 5.9351855,4.99212134 C7.11008659,3.5360556 7.7606136,2.71755556 7.94047466,1.63112815 C7.9752239,1.42122985 7.97780002,1.27454888 7.97780002,1.27454888 C7.98586606,1.1384503 8.10568673,1.01741554 8.2331754,1.00899232 C8.2331754,1.00899232 8.37648203,0.983977615 8.58158569,1.01739069 C9.55604181,1.1761376 10.6659157,1.75861204 9.65435121,5.0325988 C9.60736393,5.18467584 9.57843847,5.2678164 9.57843847,5.2678164 C9.5351181,5.39778275 9.61165504,5.5031413 9.75140606,5.5031413 L13.3537197,5.5031413 C14.4567346,5.5031413 15.1778914,6.37575585 14.9611375,7.46898133 L14.8562296,7.99809734 L13.5395711,12.5623948 C13.3105361,13.3563622 12.4486283,14 11.8881786,14 L6.00126966,13.5392342 C5.72442607,13.5175657 5.5,13.2692032 5.5,12.9995642 Z"/>
  </defs>
  <g fill="none" fill-rule="evenodd">
    <g stroke="#999" transform="translate(.5)">
      <use xlink:href="#ic_comment_normal-a"/>
      <path d="M5.75640421,13.9997956 L3,13.9997956 C2.17157288,13.9997956 1.5,13.3282228 1.5,12.4997956 L1.5,6.5 C1.5,5.67157288 2.17157288,5 3,5 L5.27380195,5 C5.34148753,4.92356479 5.4369916,4.81247071 5.53141859,4.69622847 C5.53875539,4.6871869 5.53875539,4.6871869 5.54606447,4.67813914 C6.97010792,2.91330896 7.30993703,2.37851538 7.44718888,1.54946333 C7.46889795,1.41833253 7.47699021,1.31626835 7.47867584,1.24496773 C7.50143001,0.861035399 7.81749988,0.535366006 8.14719854,0.516439803 C8.17153703,0.512397229 8.17153703,0.512397229 8.22212654,0.506756559 C8.34972708,0.494582045 8.49844408,0.49725491 8.66197999,0.523896254 C10.3815768,0.804032718 11.0360913,2.1165072 10.1855202,5.0031413 L13.3537197,5.0031413 C14.7746842,5.0031413 15.7291042,6.16654736 15.4515903,7.56622346 L15.3366404,8.13668099 L14.019982,12.7009784 C13.7449434,13.6544207 12.7238253,14.5 11.8491631,14.4984755 L5.9622542,14.0377096 C5.89150184,14.0321719 5.8226396,14.019262 5.75640421,13.9997956 Z"/>
    </g>
    <rect width="1" height="8" x="5" y="5.5" fill="#999"/>
  </g>
</svg>
