<svg xmlns="http://www.w3.org/2000/svg" xmlns:xlink="http://www.w3.org/1999/xlink" width="14" height="13" viewBox="0 0 14 13">
  <defs>
    <path id="ic_like_normal-a" d="M0.502602427,5.07418746 C5.37537368e-09,5.07418746 0,5.52955189 0,5.52955189 L0.696745574,12.5307185 C0.696745574,13.0385008 1.199348,12.9992987 1.199348,12.9992987 L2.2143733,12.9992987 C2.85554196,12.9992984 2.80731526,12.5307185 2.80731526,12.5307185 L2.80731511,5.62939585 C2.74449823,4.994668 2.20950823,5.0575921 2.21437328,5.0575921 L0.502602427,5.07418746 Z M8.71011448,5.03712334 C8.71011448,5.03712334 9.23891161,3.89890895 9.51916813,2.08814156 C9.63277859,0.0215787645 8.08252196,-0.433617456 7.39318632,0.382051165 C6.6839449,1.27289184 7.39318632,1.86780723 4.27911113,4.59378755 C3.73447253,5.03161402 3.4993193,5.78659894 3.4993193,6.49977419 C3.4993193,7.21294945 3.4993193,11.5545843 3.4993193,11.5545843 C3.48790063,12.3524263 3.84305738,12.9995484 4.89152889,12.9995484 L10.2012017,12.9995484 C11.6686835,12.9995484 12.2028884,11.9769359 12.2028884,11.9769359 C12.2028884,11.9769359 13.7270906,8.07480506 13.8446452,7.70684437 C14.5774502,5.16751652 12.4798888,5.03161388 12.4798888,5.03161388 L8.71011448,5.03712334 Z"/>
  </defs>
  <g fill="none" fill-rule="evenodd">
    <mask id="ic_like_normal-b" fill="#fff">
      <use xlink:href="#ic_like_normal-a"/>
    </mask>
    <use fill="#1A1A1A" xlink:href="#ic_like_normal-a"/>
    <g fill="#646464" mask="url(#ic_like_normal-b)">
      <rect width="14.222" height="14.56" transform="translate(0 -1.04)"/>
    </g>
  </g>
</svg>
