<svg xmlns="http://www.w3.org/2000/svg" xmlns:xlink="http://www.w3.org/1999/xlink" width="14" height="13" viewBox="0 0 14 13">
  <defs>
    <path id="ic_zan-a" d="M0.48465234,4.87902641 C5.18339605e-09,4.87902641 0,5.31687682 0,5.31687682 L0.671861804,12.0487678 C0.671861804,12.53702 1.15651414,12.4993257 1.15651414,12.4993257 L2.13528853,12.4993257 C2.75355832,12.4993254 2.707054,12.0487678 2.707054,12.0487678 L2.70705386,5.41288062 C2.64648044,4.80256539 2.13059722,4.86306932 2.13528852,4.86306932 L0.48465234,4.87902641 Z M8.39903896,4.84338782 C8.39903896,4.84338782 8.90895048,3.74895091 9.17919784,2.00782843 C9.28875078,0.020748812 7.79386046,-0.416939861 7.12914396,0.36735689 C6.44523258,1.22393446 7.12914396,1.79596849 4.12628573,4.41710342 C3.60109851,4.8380904 3.37434361,5.56403744 3.37434361,6.24978288 C3.37434361,6.93552831 3.37434361,11.1101772 3.37434361,11.1101772 C3.36333275,11.8773329 3.70580533,12.4995658 4.71683143,12.4995658 L9.83687309,12.4995658 C11.2519448,12.4995658 11.7670709,11.5162845 11.7670709,11.5162845 C11.7670709,11.5162845 13.2368373,7.76423563 13.3501936,7.41042728 C14.0568269,4.96876588 12.0341785,4.83809027 12.0341785,4.83809027 L8.39903896,4.84338782 Z"/>
  </defs>
  <g fill="none" fill-rule="evenodd" transform="translate(.5)">
    <mask id="ic_zan-b" fill="#fff">
      <use xlink:href="#ic_zan-a"/>
    </mask>
    <use fill="#1A1A1A" xlink:href="#ic_zan-a"/>
    <g fill="#0084FF" mask="url(#ic_zan-b)">
      <rect width="13.714" height="14" transform="translate(0 -1)"/>
    </g>
  </g>
</svg>
