<svg xmlns="http://www.w3.org/2000/svg" xmlns:xlink="http://www.w3.org/1999/xlink" width="15" height="15" viewBox="0 0 15 15">
  <defs>
    <path id="ic_comment_active-a" d="M4.5,12.9995642 L4.5,13.4997956 L2,13.4997956 C1.44771525,13.4997956 1,13.0520804 1,12.4997956 L1,6.5 C1,5.94771525 1.44771525,5.5 2,5.5 L4.5,5.5 L4.5,5.69775391 C4.5,5.58853744 4.55822017,5.43391123 4.62836078,5.35371353 C4.62836078,5.35371353 4.78457831,5.17877021 4.9351855,4.99212134 C6.11008659,3.5360556 6.7606136,2.71755556 6.94047466,1.63112815 C6.9752239,1.42122985 6.97780002,1.27454888 6.97780002,1.27454888 C6.98586606,1.1384503 7.10568673,1.01741554 7.2331754,1.00899232 C7.2331754,1.00899232 7.37648203,0.983977615 7.58158569,1.01739069 C8.55604181,1.1761376 9.66591571,1.75861204 8.65435121,5.0325988 C8.60736393,5.18467584 8.57843847,5.2678164 8.57843847,5.2678164 C8.5351181,5.39778275 8.61165504,5.5031413 8.75140606,5.5031413 L12.3537197,5.5031413 C13.4567346,5.5031413 14.1778914,6.37575585 13.9611375,7.46898133 L13.8562296,7.99809734 L12.5395711,12.5623948 C12.3105361,13.3563622 11.4486283,14 10.8881786,14 L5.00126966,13.5392342 C4.72442607,13.5175657 4.5,13.2692032 4.5,12.9995642 Z"/>
  </defs>
  <g fill="none" fill-rule="evenodd">
    <g stroke="#0084FF">
      <use xlink:href="#ic_comment_active-a"/>
      <path d="M4.75640421,13.9997956 L2,13.9997956 C1.17157288,13.9997956 0.5,13.3282228 0.5,12.4997956 L0.5,6.5 C0.5,5.67157288 1.17157288,5 2,5 L4.27380195,5 C4.34148753,4.92356479 4.4369916,4.81247071 4.53141859,4.69622847 C4.53875539,4.6871869 4.53875539,4.6871869 4.54606447,4.67813914 C5.97010792,2.91330896 6.30993703,2.37851538 6.44718888,1.54946333 C6.46889795,1.41833253 6.47699021,1.31626835 6.47867584,1.24496773 C6.50143001,0.861035399 6.81749988,0.535366006 7.14719854,0.516439803 C7.17153703,0.512397229 7.17153703,0.512397229 7.22212654,0.506756559 C7.34972708,0.494582045 7.49844408,0.49725491 7.66197999,0.523896254 C9.38157681,0.804032718 10.0360913,2.1165072 9.18552016,5.0031413 L12.3537197,5.0031413 C13.7746842,5.0031413 14.7291042,6.16654736 14.4515903,7.56622346 L14.3366404,8.13668099 L13.019982,12.7009784 C12.7449434,13.6544207 11.7238253,14.5 10.8491631,14.4984755 L4.9622542,14.0377096 C4.89150184,14.0321719 4.8226396,14.019262 4.75640421,13.9997956 Z"/>
    </g>
    <rect width="1" height="8" x="3.5" y="5.5" fill="#0084FF"/>
  </g>
</svg>
