<svg xmlns="http://www.w3.org/2000/svg" width="77" height="86" viewBox="0 0 77 86">
  <g fill="#BFBFBF">
    <path d="M4.26664829,73.8704213 C4.2380484,73.6999399 4.19991521,73.3873906 4.19991521,72.8475328 L4.19991521,5.16666199 C4.19991521,4.61733295 4.2380484,4.30478367 4.26664829,4.14377344 C4.43824763,4.11535986 4.75284641,4.0774751 5.30577762,4.0774751 L61.0269,4.0774751 C61.5798312,4.0774751 61.89443,4.11535986 62.0660293,4.14377344 C62.0946292,4.31425486 62.1327624,4.62680414 62.1327624,5.16666199 L62.1327624,37.4585578 L66.2754778,39.8737113 L66.2754778,5.66377182 C66.2754778,1.74269902 64.5022846,0 60.5269,0 L5.80577762,0 C1.83039294,0 0.0571997795,1.74269902 0.0571997795,5.66377182 L0.0571997795,72.3504229 C0.0571997795,76.2714957 1.83039294,78.0141948 5.80577762,78.0141948 L32.3655419,78.0141948 L32.3655419,73.9461908 L5.30577762,73.9461908 C4.75284641,73.9461908 4.43824763,73.9083061 4.26664829,73.8704213 Z M12.7555508,39.2675551 C11.7736213,39.2675551 10.9728244,40.2525589 10.9728244,41.2186203 C10.9728244,42.1941529 11.7736213,43.1696855 12.7555508,43.1696855 L38.89585,43.1696855 C39.8873129,43.1696855 40.6785765,42.1846817 40.6785765,41.2186203 C40.6785765,40.2430877 39.8777796,39.2675551 38.89585,39.2675551 L12.7555508,39.2675551 Z M55.2740536,28.612466 C55.2740536,27.6369334 54.4732566,26.6614008 53.4817938,26.6614008 L12.7555508,26.6614008 C11.7736213,26.6614008 10.9728244,27.6464046 10.9728244,28.612466 C10.9728244,29.5879986 11.7736213,30.5635312 12.7555508,30.5635312 L53.4817938,30.5635312 C54.4732566,30.5635312 55.2740536,29.5785274 55.2740536,28.612466 Z M33.2330719,51.8737094 L12.7555508,51.8737094 C11.7736213,51.8737094 10.9728244,52.8587132 10.9728244,53.8247746 C10.9728244,54.8003073 11.7736213,55.7758399 12.7555508,55.7758399 L33.2330719,55.7758399 C34.2150014,55.7758399 35.0157983,54.7908361 35.0157983,53.8247746 C35.0157983,52.8587132 34.2150014,51.8737094 33.2330719,51.8737094 Z M53.4817938,14.0457753 L12.7555508,14.0457753 C11.7736213,14.0457753 10.9728244,15.0307791 10.9728244,15.9968405 C10.9728244,16.9723731 11.7736213,17.9479057 12.7555508,17.9479057 L53.4817938,17.9479057 C54.4732566,17.9479057 55.2645203,16.9629019 55.2645203,15.9968405 C55.2740536,15.0213079 54.4732566,14.0457753 53.4817938,14.0457753 Z"/>
    <g transform="translate(40.906 44.593)">
      <path d="M30.2849531,13.6368395 L29.4239531,13.6368395 L29.4449531,11.3578803 C29.4239531,5.98455461 26.2109531,1.67753086 21.2549531,0.381242165 C20.2679531,0.130347578 19.2179531,-0.0160075973 18.1259531,0.0049002849 C14.9549531,0.0049002849 12.0989531,1.21755745 10.0619531,3.39197721 C8.06695312,5.50367331 6.97495312,8.36805318 6.99595312,11.4415119 L6.91195312,13.6368395 L5.77795312,13.6368395 C2.58595312,13.6368395 0.002953125,16.208509 0.002953125,19.3865071 L0.002953125,35.6528395 C0.002953125,38.8308376 2.58595312,41.4025071 5.77795312,41.4025071 L30.2849531,41.4025071 C33.4769531,41.4025071 36.0599531,38.8308376 36.0599531,35.6528395 L36.0599531,19.3865071 C36.0599531,16.208509 33.4559531,13.6368395 30.2849531,13.6368395 Z M20.3519531,3.64287179 C23.7959531,4.54191073 26.0429531,7.57355366 26.0429531,11.3787882 L26.0219531,13.6368395 L10.2929531,13.6368395 L10.3769531,11.4624198 C10.3769531,9.20436847 11.1329531,7.15539601 12.5609531,5.67093637 C13.9679531,4.20738462 15.9419531,3.39197721 18.1259531,3.37106933 C18.9029531,3.35016144 19.6379531,3.45470085 20.3519531,3.64287179 Z M32.6789531,19.3865071 L32.6789531,35.6528395 C32.6789531,36.9700361 31.6079531,38.0363381 30.2849531,38.0363381 L5.77795313,38.0363381 C4.45495313,38.0363381 3.38395313,36.9700361 3.38395313,35.6528395 L3.38395313,19.3865071 C3.38395313,18.0693105 4.45495313,17.0030085 5.77795313,17.0030085 L30.2849531,17.0030085 C31.6079531,17.0030085 32.6789531,18.0693105 32.6789531,19.3865071 Z"/>
      <path d="M18.0209531,21.7700057 C16.3409531,21.7700057 14.9759531,23.129018 14.9759531,24.8016486 C14.9759531,25.805227 15.5009531,26.7669896 16.3409531,27.3315024 L16.3409531,31.5758025 C16.3409531,32.4957493 17.0969531,33.2693409 18.0419531,33.2693409 C18.9659531,33.2693409 19.7429531,32.5166572 19.7429531,31.5758025 L19.7429531,27.3315024 C20.5829531,26.7669896 21.1079531,25.805227 21.1079531,24.8016486 C21.0869531,23.129018 19.7219531,21.7700057 18.0209531,21.7700057 Z"/>
    </g>
  </g>
</svg>
