<svg xmlns="http://www.w3.org/2000/svg" width="30" height="42" viewBox="0 0 30 42">
  <g fill="none" fill-rule="evenodd" transform="translate(-7 -2)">
    <path fill="#0084FF" d="M33.017,16 C35.2180989,16.0099015 36.9978217,17.7958799 37,19.997 L37,40.003 C37.000266,41.0636718 36.5788282,42.0809337 35.8285386,42.8306605 C35.0782491,43.5803873 34.0606713,44.0010618 33,44 L11,44 C8.79,44 7,42.206 7,40.003 L7,19.997 C6.99943723,17.7947468 8.78075833,16.0071644 10.983,16 L14.002,16 C15.106,16 16,16.888 16,18 C16,19.105 15.102,20 14.002,20 L11,20 L11,40 L33,40 L33,20 L29.998,20 C28.898,20 28,19.105 28,18 C28,16.888 28.894,16 29.998,16 L33.017,16 Z"/>
    <path fill="#0084FF" d="M20,6 L24,6 L24,27.003 C24.0013311,27.5339318 23.7910769,28.0435159 23.4157441,28.4190364 C23.0404113,28.7945568 22.5309324,29.0050657 22,29.004 C20.895,29.004 20,28.102 20,27.003 L20,6 L20,6 Z"/>
    <path fill="#0084FF" d="M21.72,2.014 C21.464,2.015 21.21,2.114 21.014,2.309 L14.658,8.665 C14.1380868,9.16714894 13.9295748,9.91075578 14.1126057,10.6100146 C14.2956366,11.3092735 14.8417265,11.8553634 15.5409854,12.0383943 C16.2402442,12.2214252 16.9838511,12.0129132 17.486,11.493 L21.723,7.257 L25.96,11.493 C26.4621489,12.0129132 27.2057558,12.2214252 27.9050146,12.0383943 C28.6042735,11.8553634 29.1503634,11.3092735 29.3333943,10.6100146 C29.5164252,9.91075578 29.3079132,9.16714894 28.788,8.665 L22.432,2.309 C22.2446933,2.12276119 21.9911371,2.01846145 21.727,2.019 L21.719,2.014 L21.72,2.014 Z"/>
    <rect width="44" height="47"/>
  </g>
</svg>
