<svg xmlns="http://www.w3.org/2000/svg" width="18" height="15" viewBox="0 0 18 15">
  <path fill="#0084FF" fill-rule="evenodd" d="M2,0 L16,0 C17.1045695,0 18,0.8954305 18,2 L18,13 C18,14.1045695 17.1045695,15 16,15 L2,15 C0.8954305,15 0,14.1045695 0,13 L0,2 C0,0.8954305 0.8954305,0 2,0 Z M3.625,3.75 C3.27982203,3.75 3,4.02982203 3,4.375 C3,4.72017797 3.27982203,5 3.625,5 L14.375,5 C14.720178,5 15,4.72017797 15,4.375 C15,4.02982203 14.720178,3.75 14.375,3.75 L3.625,3.75 Z M3.625,6.6666667 C3.27982203,6.6666667 3,6.9464887 3,7.2916667 C3,7.6368446 3.27982203,7.9166667 3.625,7.9166667 L14.375,7.9166667 C14.720178,7.9166667 15,7.6368446 15,7.2916667 C15,6.9464887 14.720178,6.6666667 14.375,6.6666667 L3.625,6.6666667 Z M3.625,9.5833333 C3.27982203,9.5833333 3,9.8631554 3,10.2083333 C3,10.5535113 3.27982203,10.8333333 3.625,10.8333333 L10.9464286,10.8333333 C11.2916065,10.8333333 11.5714286,10.5535113 11.5714286,10.2083333 C11.5714286,9.8631554 11.2916065,9.5833333 10.9464286,9.5833333 L3.625,9.5833333 Z"/>
</svg>
